<svg width="16" height="16" viewBox="0 0 16 16" fill="none" xmlns="http://www.w3.org/2000/svg">
<g clip-path="url(#clip0)">
<path d="M3.32525 7.61703C3.32524 7.52768 3.34287 7.4392 3.37713 7.35668C3.4114 7.27416 3.46163 7.19923 3.52493 7.13619C3.58823 7.07315 3.66336 7.02324 3.746 6.98934C3.82864 6.95543 3.91716 6.93819 4.00648 6.9386L5.13589 6.94231C5.31597 6.94231 5.48867 7.01387 5.61601 7.14125C5.74335 7.26863 5.81488 7.4414 5.81488 7.62155V11.8938C5.94211 11.8561 6.10528 11.8159 6.28403 11.774C6.40814 11.7447 6.51875 11.6744 6.59793 11.5745C6.6771 11.4745 6.7202 11.3507 6.72023 11.2231V5.92374C6.72021 5.74357 6.79174 5.57078 6.91908 5.44336C7.04641 5.31595 7.21912 5.24436 7.39922 5.24433H8.53092C8.71102 5.24437 8.88372 5.31597 9.01105 5.44338C9.13838 5.57079 9.20992 5.74358 9.20992 5.92374V10.8423C9.20992 10.8423 9.49313 10.7275 9.7692 10.611C9.87172 10.5676 9.95919 10.495 10.0207 10.4022C10.0823 10.3094 10.1151 10.2006 10.1152 10.0892V4.22532C10.1152 4.13613 10.1328 4.04781 10.1669 3.9654C10.201 3.883 10.251 3.80812 10.314 3.74505C10.3771 3.68197 10.4519 3.63194 10.5343 3.5978C10.6166 3.56366 10.7049 3.54609 10.7941 3.54608H11.9258C12.1059 3.54608 12.2786 3.61764 12.4059 3.74502C12.5333 3.8724 12.6048 4.04517 12.6048 4.22532V9.05392C13.5859 8.34264 14.5803 7.48709 15.3694 6.45838C15.4838 6.30906 15.5596 6.13371 15.5899 5.94798C15.6201 5.76225 15.604 5.57191 15.5428 5.39394C15.0089 3.83741 14.0075 2.48385 12.6754 1.51832C11.3433 0.552785 9.74556 0.0224232 8.10071 -0.000251287C3.66526 -0.0598562 -0.000397328 3.56215 3.83791e-05 7.99977C-0.00431669 9.40399 0.362044 10.7845 1.06208 12.0016C1.15862 12.1681 1.30064 12.3035 1.47147 12.3921C1.6423 12.4806 1.83483 12.5185 2.02646 12.5014C2.24056 12.4825 2.5071 12.4559 2.82397 12.4187C2.96189 12.403 3.08922 12.3371 3.18171 12.2335C3.2742 12.13 3.32538 11.996 3.32552 11.8572V7.61703" fill="#0C598B"/>
<path d="M3.30084 14.47C4.49369 15.3381 5.90335 15.8592 7.37386 15.9756C8.84436 16.092 10.3184 15.7992 11.6329 15.1295C12.9474 14.4599 14.051 13.4396 14.8218 12.1814C15.5926 10.9232 16.0004 9.47627 16.0002 8.00063C16.0002 7.81642 15.9916 7.63428 15.9793 7.45312C13.0578 11.8118 7.66352 13.8498 3.30078 14.4702" fill="#979695"/>
</g>
<defs>
<clipPath id="clip0">
<rect width="16" height="16" fill="white"/>
</clipPath>
</defs>
</svg>
