<?xml version="1.0" encoding="UTF-8"?>
<svg xmlns="http://www.w3.org/2000/svg" xmlns:xlink="http://www.w3.org/1999/xlink" width="87px" height="87px" viewBox="0 0 87 87" version="1.1">
<g id="surface1">
<path style=" stroke:none;fill-rule:nonzero;fill:rgb(0%,0%,0%);fill-opacity:1;" d="M 39.292969 0.171875 C 32.644531 1.125 28.441406 2.398438 23.511719 4.929688 C 11.574219 11.109375 3.3125 22.28125 0.660156 35.8125 C -0.0195312 39.441406 -0.0195312 47.558594 0.660156 51.1875 C 2.398438 60.003906 6.585938 67.96875 12.703125 74.148438 C 18.796875 80.308594 26.933594 84.601562 35.8125 86.339844 C 39.441406 87.019531 47.558594 87.019531 51.1875 86.339844 C 60.066406 84.601562 68.203125 80.308594 74.296875 74.148438 C 80.414062 67.96875 84.601562 60.003906 86.339844 51.1875 C 87.019531 47.558594 87.019531 39.441406 86.339844 35.8125 C 84.601562 26.996094 80.414062 19.03125 74.296875 12.851562 C 68.351562 6.839844 60.320312 2.527344 51.933594 0.851562 C 49.277344 0.296875 41.332031 -0.105469 39.292969 0.171875 Z M 63.507812 29.863281 L 63.507812 35.089844 L 44.074219 35.089844 L 44.074219 42.054688 L 60.894531 42.054688 L 60.894531 46.113281 L 30.160156 46.113281 L 30.160156 38.273438 L 24.9375 38.273438 L 24.9375 32.773438 L 30.160156 32.773438 L 30.160156 30.160156 L 24.9375 30.160156 L 24.9375 24.660156 L 63.507812 24.660156 Z M 58.878906 51.039062 L 58.878906 53.078125 L 50.402344 53.121094 L 41.90625 53.207031 L 41.820312 59.640625 L 41.757812 66.121094 L 28.121094 66.121094 L 28.121094 49 L 58.878906 49 Z M 58.878906 51.039062 "/>
</g>
</svg>
