<?xml version="1.0" standalone="no"?>
<!DOCTYPE svg PUBLIC "-//W3C//DTD SVG 20010904//EN"
 "http://www.w3.org/TR/2001/REC-SVG-20010904/DTD/svg10.dtd">
<svg version="1.0" xmlns="http://www.w3.org/2000/svg"
 width="16.000000pt" height="16.000000pt" viewBox="0 0 16.000000 16.000000"
 preserveAspectRatio="xMidYMid meet">

<g transform="translate(0.000000,16.000000) scale(0.100000,-0.100000)"
fill="#000000" stroke="none">
<path d="M37 122 c-22 -24 -21 -65 1 -85 40 -36 102 -9 102 45 0 51 -69 78
-103 40z m73 -6 c0 -7 -7 -19 -15 -26 -12 -10 -18 -10 -30 0 -25 21 -18 40 15
40 19 0 30 -5 30 -14z m-4 -25 c22 20 26 21 23 6 -2 -10 -7 -17 -10 -15 -3 2
-13 -3 -22 -10 -9 -8 -21 -10 -29 -6 -7 5 -17 9 -23 9 -5 0 -11 9 -13 20 -4
18 -2 18 22 -4 l26 -24 26 24z"/>
</g>
</svg>
